#!OML:ASF E:\Steps\Project 1\Capture day 1\Session 2\Subject.ASF
:FULLY-SPECIFIED
:DEGREES
125
root -1.07103 19.4987 20.7472 -156.333 -0.380766 181.194
lowerback -25.2521 -3.65764 -9.09152
upperback -0.011762 -2.50779 0.175647
thorax 14.6323 -1.94458 4.45402
lowerneck -5.67438 -6.37217 0.00656283
upperneck 27.7468 -7.0942 0.761172
head 9.71212 -2.41775 -0.298285
rclavicle -8.15017e-015 -2.46493e-014
rhumerus -35.5365 -17.5172 -79.0285
rradius 32.5775
rwrist -4.91676
rhand -1.68899 -60.6519
rfingers 7.12502
rthumb 23.9717 -89.1753
lclavicle -8.15017e-015 -2.46493e-014
lhumerus -29.5959 2.75621 79.1024
lradius 18.4419
lwrist -2.04227
lhand -20.509 -11.4312
lfingers 7.12502
lthumb 5.84842 18.4681
rfemur -44.563 -2.72335 21.0117
rtibia 46.178
rfoot -24.3401 12.2273
rtoes -45.1904
lfemur -29.9433 -11.0439 -18.7294
ltibia 25.8566
lfoot -17.942 6.45229
ltoes -22.0434
126
root -1.05923 19.4904 20.7376 -156.405 -0.459657 181.297
lowerback -24.9536 -3.68454 -9.09084
upperback -0.11777 -2.59276 0.234178
thorax 14.3528 -1.97433 4.50008
lowerneck -5.83514 -6.39181 0.130467
upperneck 28.1565 -7.02118 0.452091
head 9.87218 -2.3763 -0.424846
rclavicle -9.93923e-015 2.38542e-015
rhumerus -36.0415 -17.5556 -78.7643
rradius 32.5654
rwrist -5.02864
rhand -2.18581 -59.3473
rfingers 7.12502
rthumb 23.4952 -87.9325
lclavicle -9.93923e-015 2.38542e-015
lhumerus -29.7865 3.07427 78.8952
lradius 18.1966
lwrist -2.33642
lhand -20.5097 -11.5602
lfingers 7.12502
lthumb 5.84777 18.3391
rfemur -44.8419 -2.69461 20.6793
rtibia 46.3488
rfoot -24.024 11.076
rtoes -44.0756
lfemur -30.1443 -11.1181 -18.5707
ltibia 26.5455
lfoot -18.3507 6.49241
ltoes -22.1224
127
root -1.04515 19.481 20.7336 -156.42 -0.501265 181.426
lowerback -24.7412 -3.75387 -9.19514
upperback -0.204118 -2.70127 0.371358
thorax 14.1601 -2.02868 4.68662
lowerneck -5.64 -6.33914 -0.0112123
upperneck 28.1542 -6.90013 0.452612
head 9.8398 -2.32962 -0.382059
rclavicle 2.0276e-014 7.95139e-015
rhumerus -36.4142 -17.6368 -78.4188
rradius 32.4542
rwrist -5.07103
rhand -3.37168 -56.4957
rfingers 7.12502
rthumb 22.3572 -85.2221
lclavicle 2.0276e-014 7.95139e-015
lhumerus -30.0825 3.23394 78.8337
lradius 18.3208
lwrist -2.31499
lhand -20.1517 -10.8997
lfingers 7.12502
lthumb 6.19334 18.9898
rfemur -45.195 -2.5556 20.3011
rtibia 46.5211
rfoot -23.4289 10.0105
rtoes -42.1095
lfemur -30.4189 -11.1261 -18.3534
ltibia 27.1556
lfoot -18.6401 6.55972
ltoes -22.7998
128
root -1.03118 19.4707 20.7307 -156.432 -0.647904 181.604
lowerback -24.6485 -3.85612 -9.19117
upperback -0.203723 -2.85925 0.503626
thorax 14.1422 -2.10303 4.78181
lowerneck -4.96963 -6.23969 -0.171375
upperneck 27.2882 -6.86425 0.751525
head 9.41941 -2.34863 -0.224932
rclavicle -1.35174e-014 -4.77083e-015
rhumerus -36.6435 -17.6741 -78.1872
rradius 32.26
rwrist -5.10912
rhand -1.9614 -58.7364
rfingers 7.12502
rthumb 23.7104 -87.2939
lclavicle -1.35174e-014 -4.77083e-015
lhumerus -30.1728 3.29387 78.7698
lradius 18.4127
lwrist -2.24529
lhand -19.9973 -9.96905
lfingers 7.12502
lthumb 6.34246 19.916
rfemur -45.4997 -2.30616 19.9343
rtibia 46.5729
rfoot -22.6179 8.52296
rtoes -40.6081
lfemur -30.6998 -11.2117 -18.0389
ltibia 27.7448
lfoot -18.8751 6.65512
ltoes -23.2789
129
root -1.01853 19.4608 20.7243 -156.442 -0.861709 181.791
lowerback -24.4634 -3.92803 -9.03374
upperback -0.253768 -3.0288 0.56446
thorax 14.0009 -2.16473 4.7053
lowerneck -3.96387 -6.19271 -0.18392
upperneck 25.9373 -6.96503 1.10803
head 8.77156 -2.44028 -0.0759131
rclavicle 6.16232e-015 2.3059e-014
rhumerus -36.9618 -17.8329 -78.0052
rradius 32.0945
rwrist -4.85083
rhand -1.66139 -59.1149
rfingers 7.12502
rthumb 23.9981 -87.6348
lclavicle 6.16232e-015 2.3059e-014
lhumerus -30.2401 3.55488 78.5055
lradius 18.2546
lwrist -2.46706
lhand -20.3052 -9.55643
lfingers 7.12502
lthumb 6.04521 20.3373
rfemur -45.7167 -2.12741 19.6424
rtibia 46.2765
rfoot -21.6628 6.21998
rtoes -40.759
lfemur -30.9832 -11.4449 -17.6876
ltibia 28.35
lfoot -19.2047 6.78613
ltoes -23.4162
130
root -1.0059 19.4494 20.7153 -156.415 -1.04481 181.863
lowerback -24.3031 -3.997 -8.99234
upperback -0.318934 -3.15943 0.604061
thorax 13.8543 -2.21704 4.68507
lowerneck -3.37712 -6.18615 -0.234589
upperneck 25.1525 -7.04838 1.35008
head 8.40574 -2.50655 0.0267752
rclavicle -3.97569e-015 2.22639e-014
rhumerus -37.3064 -18.1662 -77.6657
rradius 31.9323
rwrist -4.39187
rhand -2.07798 -58.041
rfingers 7.12502
rthumb 23.5986 -86.6129
lclavicle -3.97569e-015 2.22639e-014
lhumerus -30.4777 3.65866 78.298
lradius 18.3486
lwrist -2.32704
lhand -20.3112 -9.34534
lfingers 7.12502
lthumb 6.0394 20.5486
rfemur -45.9061 -2.07703 19.2369
rtibia 45.7679
rfoot -20.4448 3.72752
rtoes -40.8979
lfemur -31.3248 -11.6564 -17.4904
ltibia 28.9779
lfoot -19.5822 6.59871
ltoes -22.0011
131
root -0.992687 19.4357 20.7043 -156.333 -1.20185 181.907
lowerback -24.3741 -4.07733 -9.06066
upperback -0.281072 -3.24251 0.680424
thorax 13.9624 -2.26581 4.77859
lowerneck -3.49787 -6.13566 -0.162256
upperneck 25.1841 -6.97309 1.26044
head 8.43117 -2.47338 -0.0128051
rclavicle 5.96354e-016 2.38542e-014
rhumerus -37.4355 -18.4188 -77.3396
rradius 31.7474
rwrist -4.49347
rhand -2.62344 -56.5279
rfingers 7.12502
rthumb 23.0753 -85.1662
lclavicle 5.96354e-016 2.38542e-014
lhumerus -30.5848 3.58539 78.2692
lradius 18.8593
lwrist -1.43775
lhand -19.3844 -8.48475
lfingers 7.12502
lthumb 6.93406 21.3817
rfemur -46.0772 -1.98302 18.714
rtibia 45.1764
rfoot -19.0238 1.57425
rtoes -39.7616
lfemur -31.7204 -11.7854 -17.3448
ltibia 29.6099
lfoot -19.8333 6.39103
ltoes -20.1632
